<!-- Generated by IcoMoon.io -->
<svg version="1.1" xmlns="http://www.w3.org/2000/svg" width="32" height="32" viewBox="0 0 32 32">
<title>SSLC_White_Pencil</title>
<path d="M29.564 6.909c-1.018-1.491-1.782-1.382-2.037-1.272-0.072 0.037-0.109 0.037-0.109 0.037v0l-22.619 15.819c0.582 0.072 1.272 0.582 1.854 1.418 0.363 0.509 0.618 1.055 0.728 1.527 0.072 0.327 0.072 0.545 0.037 0.727l22.728-15.891-0.037-0.037c0.145-0.182 0.509-0.873-0.545-2.327v0z"></path>
<path d="M5.963 25.674v0l0.728-0.509-0.037-0.037c0.037-0.037 0.109-0.218 0.037-0.545-0.037-0.182-0.109-0.363-0.182-0.545-0.109-0.254-0.254-0.509-0.4-0.727-0.182-0.254-0.363-0.473-0.545-0.655-0.363-0.363-0.728-0.509-0.873-0.509-0.037 0-0.037 0-0.072 0v-0.037l-0.4 0.254-0.327 0.218-0.037 0.037-2.473 3.964 4-0.837c-0.037-0.291-0.109-0.545-0.218-0.8-0.145-0.291-0.291-0.618-0.545-0.873-0.109-0.145-0.072-0.254 0-0.363 0.072-0.072 0.218-0.145 0.327-0.109 0.072 0 0.109 0.037 0.182 0.109 0.182 0.218 0.363 0.473 0.473 0.764 0.109 0.218 0.182 0.436 0.254 0.655 0.037 0.145 0.072 0.291 0.109 0.473 0 0.072 0 0.072 0 0.072v0z"></path>
</svg>
